<mxfile host="Electron" modified="2024-02-14T09:11:35.774Z" agent="Mozilla/5.0 (Windows NT 10.0; Win64; x64) AppleWebKit/537.36 (KHTML, like Gecko) draw.io/22.1.16 Chrome/120.0.6099.109 Electron/28.1.0 Safari/537.36" etag="dQu_-Vp2M_t3vF0-xMx5" version="22.1.16" type="device">
  <diagram name="Page-1" id="0OG-6StCYSI204r_WwEa">
    <mxGraphModel dx="668" dy="1002" grid="1" gridSize="10" guides="1" tooltips="1" connect="1" arrows="1" fold="1" page="1" pageScale="1" pageWidth="850" pageHeight="1100" math="0" shadow="0">
      <root>
        <mxCell id="0" />
        <mxCell id="1" parent="0" />
        <mxCell id="5jzjs0GRNidWrg2iOK71-1" value="&lt;h5&gt;web galeri sistem&lt;/h5&gt;" style="rounded=1;whiteSpace=wrap;html=1;hachureGap=4;fontFamily=Architects Daughter;fontSource=https%3A%2F%2Ffonts.googleapis.com%2Fcss%3Ffamily%3DArchitects%2BDaughter;fontSize=20;fontColor=#FFFFFF;labelBackgroundColor=none;labelBorderColor=none;fillColor=#182E3E;strokeColor=#FFFFFF;" vertex="1" parent="1">
          <mxGeometry x="410" y="120" width="160" height="70" as="geometry" />
        </mxCell>
        <mxCell id="5jzjs0GRNidWrg2iOK71-2" value="" style="endArrow=none;html=1;rounded=1;hachureGap=4;fontFamily=Architects Daughter;fontSource=https%3A%2F%2Ffonts.googleapis.com%2Fcss%3Ffamily%3DArchitects%2BDaughter;fontSize=16;entryX=0.5;entryY=1;entryDx=0;entryDy=0;labelBackgroundColor=none;strokeColor=#23445D;fontColor=default;" edge="1" parent="1" target="5jzjs0GRNidWrg2iOK71-1">
          <mxGeometry width="50" height="50" relative="1" as="geometry">
            <mxPoint x="490" y="240" as="sourcePoint" />
            <mxPoint x="360" y="650" as="targetPoint" />
          </mxGeometry>
        </mxCell>
        <mxCell id="5jzjs0GRNidWrg2iOK71-5" value="user" style="rounded=1;whiteSpace=wrap;html=1;fontSize=20;labelBackgroundColor=none;fillColor=#182E3E;strokeColor=#FFFFFF;fontColor=#FFFFFF;" vertex="1" parent="1">
          <mxGeometry x="370" y="240" width="230" height="50" as="geometry" />
        </mxCell>
        <mxCell id="5jzjs0GRNidWrg2iOK71-6" value="" style="endArrow=none;html=1;rounded=1;entryX=0.517;entryY=1.02;entryDx=0;entryDy=0;entryPerimeter=0;labelBackgroundColor=none;strokeColor=#23445D;fontColor=default;" edge="1" parent="1" target="5jzjs0GRNidWrg2iOK71-5">
          <mxGeometry width="50" height="50" relative="1" as="geometry">
            <mxPoint x="485" y="350" as="sourcePoint" />
            <mxPoint x="500" y="340" as="targetPoint" />
            <Array as="points">
              <mxPoint x="489" y="320" />
            </Array>
          </mxGeometry>
        </mxCell>
        <mxCell id="5jzjs0GRNidWrg2iOK71-7" value="controller" style="rounded=1;whiteSpace=wrap;html=1;fontSize=18;labelBackgroundColor=none;fillColor=#182E3E;strokeColor=#FFFFFF;fontColor=#FFFFFF;" vertex="1" parent="1">
          <mxGeometry x="370" y="320" width="230" height="50" as="geometry" />
        </mxCell>
        <mxCell id="5jzjs0GRNidWrg2iOK71-8" value="" style="endArrow=none;html=1;rounded=1;entryX=0.522;entryY=1;entryDx=0;entryDy=0;entryPerimeter=0;labelBackgroundColor=none;strokeColor=#23445D;fontColor=default;" edge="1" parent="1" target="5jzjs0GRNidWrg2iOK71-7">
          <mxGeometry width="50" height="50" relative="1" as="geometry">
            <mxPoint x="490" y="410" as="sourcePoint" />
            <mxPoint x="500" y="340" as="targetPoint" />
          </mxGeometry>
        </mxCell>
        <mxCell id="5jzjs0GRNidWrg2iOK71-9" value="user manajemen proses" style="rounded=1;whiteSpace=wrap;html=1;fontSize=16;labelBackgroundColor=none;fillColor=#182E3E;strokeColor=#FFFFFF;fontColor=#FFFFFF;" vertex="1" parent="1">
          <mxGeometry x="370" y="400" width="230" height="50" as="geometry" />
        </mxCell>
        <mxCell id="5jzjs0GRNidWrg2iOK71-12" value="" style="endArrow=none;html=1;rounded=1;labelBackgroundColor=none;strokeColor=#23445D;fontColor=default;" edge="1" parent="1">
          <mxGeometry width="50" height="50" relative="1" as="geometry">
            <mxPoint x="490" y="480" as="sourcePoint" />
            <mxPoint x="490" y="450" as="targetPoint" />
          </mxGeometry>
        </mxCell>
        <mxCell id="5jzjs0GRNidWrg2iOK71-13" value="album galeri proses" style="rounded=1;whiteSpace=wrap;html=1;fontSize=19;labelBackgroundColor=none;fillColor=#182E3E;strokeColor=#FFFFFF;fontColor=#FFFFFF;" vertex="1" parent="1">
          <mxGeometry x="370" y="480" width="230" height="50" as="geometry" />
        </mxCell>
        <mxCell id="5jzjs0GRNidWrg2iOK71-14" value="" style="endArrow=none;html=1;rounded=1;entryX=0.5;entryY=1;entryDx=0;entryDy=0;labelBackgroundColor=none;strokeColor=#23445D;fontColor=default;" edge="1" parent="1" target="5jzjs0GRNidWrg2iOK71-13">
          <mxGeometry width="50" height="50" relative="1" as="geometry">
            <mxPoint x="485" y="560" as="sourcePoint" />
            <mxPoint x="430" y="430" as="targetPoint" />
          </mxGeometry>
        </mxCell>
        <mxCell id="5jzjs0GRNidWrg2iOK71-15" value="poto galeri proses" style="rounded=1;whiteSpace=wrap;html=1;fontSize=20;labelBackgroundColor=none;fillColor=#182E3E;strokeColor=#FFFFFF;fontColor=#FFFFFF;" vertex="1" parent="1">
          <mxGeometry x="370" y="560" width="230" height="50" as="geometry" />
        </mxCell>
        <mxCell id="5jzjs0GRNidWrg2iOK71-16" value="" style="endArrow=none;html=1;rounded=1;entryX=0.5;entryY=1;entryDx=0;entryDy=0;labelBackgroundColor=none;strokeColor=#23445D;fontColor=default;" edge="1" parent="1" target="5jzjs0GRNidWrg2iOK71-15">
          <mxGeometry width="50" height="50" relative="1" as="geometry">
            <mxPoint x="485" y="640" as="sourcePoint" />
            <mxPoint x="460" y="520" as="targetPoint" />
          </mxGeometry>
        </mxCell>
        <mxCell id="5jzjs0GRNidWrg2iOK71-17" value="database sistem" style="rounded=1;whiteSpace=wrap;html=1;fontSize=17;labelBackgroundColor=none;fillColor=#182E3E;strokeColor=#FFFFFF;fontColor=#FFFFFF;" vertex="1" parent="1">
          <mxGeometry x="370" y="640" width="230" height="50" as="geometry" />
        </mxCell>
        <mxCell id="5jzjs0GRNidWrg2iOK71-18" value="" style="endArrow=none;html=1;rounded=1;entryX=0.5;entryY=1;entryDx=0;entryDy=0;labelBackgroundColor=none;strokeColor=#23445D;fontColor=default;" edge="1" parent="1" target="5jzjs0GRNidWrg2iOK71-17">
          <mxGeometry width="50" height="50" relative="1" as="geometry">
            <mxPoint x="485" y="720" as="sourcePoint" />
            <mxPoint x="520" y="660" as="targetPoint" />
          </mxGeometry>
        </mxCell>
        <mxCell id="5jzjs0GRNidWrg2iOK71-19" value="database" style="rounded=1;whiteSpace=wrap;html=1;fontSize=18;labelBackgroundColor=none;fillColor=#182E3E;strokeColor=#FFFFFF;fontColor=#FFFFFF;" vertex="1" parent="1">
          <mxGeometry x="372" y="720" width="230" height="40" as="geometry" />
        </mxCell>
      </root>
    </mxGraphModel>
  </diagram>
</mxfile>
